<mxfile host="Electron" agent="Mozilla/5.0 (Windows NT 10.0; Win64; x64) AppleWebKit/537.36 (KHTML, like Gecko) draw.io/24.7.5 Chrome/126.0.6478.183 Electron/31.3.0 Safari/537.36" version="24.7.5">
  <diagram name="Page-1" id="waPAyuyisM-yXYA16u7o">
    <mxGraphModel dx="1728" dy="1037" grid="1" gridSize="10" guides="1" tooltips="1" connect="1" arrows="1" fold="1" page="1" pageScale="1" pageWidth="3300" pageHeight="4681" math="0" shadow="0">
      <root>
        <mxCell id="0" />
        <mxCell id="1" parent="0" />
        <mxCell id="yiytnbEiFr3y9sX3xMqf-5" value="" style="shape=image;verticalLabelPosition=bottom;labelBackgroundColor=default;verticalAlign=top;aspect=fixed;imageAspect=0;image=data:image/png,iVBORw0KGgoAAAANSUhEUgAABJ8AAAMWCAYAAABflSfvAAAAAXNSR0IArs4c6QAAAARnQU1BAACxjwv8YQUAAAAJcEhZcwAADsMAAA7DAcdvqGQAAEjgSURBVHhe7d0JdFz3fdj7HxaCIEESBEhwX7TLkmXJliwvsi1vsRUriZq0SZy0TRW1yVHj9L3XdPHzee/U9XlpX17S0zbd0jhpe9omx4m31JZ3W15ly9RiyVqofeEmUlxAcAgOCYJY3v1fXIgDaDiAJP4tkfp8lBsOLi5mBncEGvPV//+/bZOFOM1qtVr09vZWH+WR+zG2b98emzdvrj46/c6Gc+Q1mJvXoDWvwdxyvwbJmX6OvAZz8xrMzWswtzP9fxO8BnPzGszNazC33I/hNZib16A1r8Hccjz/9upPAAAAADjtxCcAAAAAshGfAAAAAMhGfAIAAAAgG/EJAAAAgGxe0NXuRkdH4+FHHi3+PFHtaa5er0dPT0/1UR65H2Pv3r2xevXq6qPT72w4R16DuXkNWvMazC33a5Cc6efIazA3r8HcvAZzO9P/N8FrMDevwdy8BnPL/Rheg7l5DVrzGsxtPs9/2bKlcfFFF1YfzW3e8el3/98/iE/8xafK223FPwAAAAC8+kwW/3R0dMS/+v1/ER+47n3V3lObV3xK4ekv/vJTsXR5f3R2Lqj2AgAAAPBqdHzkWNSHD8f/+G8fjzddfVW1t7k541OaanfFVdfEsj7hCQAAAIApx+pHYnnv0vjW179Y7WluzgXH0xpPifAEAAAAwLSF3Ytiz55nY65JdXPGp7S4uDWeAAAAAGjU1jaVlV5yfAIAAACAF0t8AgAAACAb8QkAAACAbMQnAAAAALIRnwAAAADIRnwCAAAAIJu2bdu2tbwe3gMPPhQf/shHo29gVbXnhZmYnIi21lfcAwAAAODl0tZW/F9b9cH8TU5MxtDgvvjyLZ+O9vZTj29qmyxUt5u66+574sabbn7B8enE6PE4MlwrnwgAAAAAr1wdnZ2xdNnyaO/oqPbMbTo+bb3vzp98fErhabh2KC6+5LWxafO5LZ8AAAAAAC+fsROjsfXB++LZPXuib+WqeY+Cmm98ylKF0oinFJ7OOfd84QkAAADgFaxzQVdc8Yaro3f58qgPH672nj6nvQylNZ5S+UojngAAAAA4M1xw4WvK2Wyn22mPT9OLixvxBAAAAHDmWLBgQcyxOtOLohABAAAAkI34BAAAAEA24hMAAAAA2YhPAAAAAGQjPgEAAACQjfgEAAAAQDbiEwAAAADZiE8AAAAAZCM+AQAAAJCN+AQAAABANuITAAAAANmITwAAAABkIz4BAAAAkI34BAAAAEA24hMAAAAA2YhPAAAAAGQjPgEAAACQjfgEAAAAQDbiEwAAAADZtNdqtWi11ev16lAAAAAAmKlZT2rc2nt7e6PV1tPTU90VAAAAAMzUrCc1bqbdAQAAAJCN+AQAAABANuITAAAAANmITwAAAABkIz4BAAAAkI34BAAAAEA24hMAAAAA2YhPAAAAAGQjPgEAAACQjfgEAAAAQDbiEwAAAADZiE8AAAAAZCM+AQAAAJCN+AQAAABANuITAAAAANmITwAAAABkIz4BAAAAkI34BAAAAEA24hMAAAAA2YhPAAAAAGQjPgEAAACQjfgEAAAAQDbttVotWm31er06FAAAAABmataTGrf23t7eaLX19PRUdwUAAAAAMzXrSY2baXcAAAAAZCM+AQAAAJCN+AQAAABANuITAAAAANmITwAAAABkIz4BAAAAkI34BAAAAEA24hMAAAAA2YhPAAAAAGQjPgEAAACQjfgEAAAAQDbiEwAAAADZiE8AAAAAZCM+AQAAAJCN+AQAAABANuITAAAAANmITwAAAABkIz4BAAAAkI34BAAAAEA24hMAAAAA2YhPAAAAAGQjPgEAAACQTXutVotWW71erw4FAAAAgJma9aTGrb23tzdabT09PdVdAQAAAMBMzXpS42baHQAAAADZiE8AAAAAZCM+AQAAAJCN+AQAAABANuITAAAAANmITwAAAABkIz4BAAAAkI34BAAAAEA24hMAAAAA2YhPAAAAAGQjPgEAAACQjfgEAAAAQDbiEwAAAADZiE8AAAAAZCM+AQAAAJCN+AQAAABANuITAAAAANmITwAAAABkIz4BAAAAkI34BAAAAEA24hMAAAAA2YhPAAAAAGQjPgEAAACQTdu2bdsmq9tNPfDgQ/Hhj3w0+gZWVXtam5yYiKHB/XHd9TdUewAAAAB4pasdGoott98W/QOrqz2tTU5MxtDgvvjyLZ+O9vZTj29qmyxUt5u66+574sabbhafAAAAAM5iLzY+bb3vzpbxybQ7AAAAALIRnwAAAADIRnwCAAAAIBvxCQAAAIBsxCcAAAAAshGfAAAAAMhGfAIAAAAgG/EJAAAAgGzEJwAAAACyEZ8AAAAAyEZ8AgAAACAb8QkAAACAbMQnAAAAALIRnwAAAADIRnwCAAAAIBvxCQAAAIBsxCcAAAAAshGfAAAAAMhGfAIAAAAgG/EJAAAAgGzEJwAAAACyEZ8AAAAAyKa9VqtFq61er1eHAgAAAMBMzXpS49be29sbrbaenp7qrgAAAABgpmY9qXEz7Q4AAACAbMQnAAAAALIRnwAAAADIRnwCAAAAIBvxCQAAAIBsxCcAAAAAshGfAAAAAMhGfAIAAAAgG/EJAAAAgGzEJwAAAACyEZ8AAAAAyEZ8AgAAACAb8QkAAACAbMQnAAAAALIRnwAAAADIRnwCAAAAIBvxCQAAAIBsxCcAAAAAshGfAAAAAMhGfAIAAAAgG/EJAAAAgGzEJwAAAACyaa/VatFqq9fr1aEAAAAAMFOzntS4tff29karraenp7orAAAAAJipWU9q3Ey7AwAAACAb8QkAAACAbMQnAAAAALIRnwAAAADIRnwCAAAAIBvxCQAAAIBsxCcAAAAAshGfAAAAAMhGfAIAAAAgG/EJAAAAgGzEJwAAAACyEZ8AAAAAyEZ8AgAAACAb8QkAAACAbMQnAAAAALIRnwAAAADIRnwCAAAAIBvxCQAAAIBsxCcAAAAAshGfAAAAAMhGfAIAAAAgG/EJAAAAgGzaa7VatNrq9Xp1KAAAAADM1KwnNW7tvb290Wrr6emp7goAAAAAZmrWkxo30+4AAAAAyEZ8AgAAACAb8QkAAACAbMQnAAAAALIRnwAAAADIRnwCAAAAIBvxCQAAAIBsxCcAAAAAshGfAAAAAMhGfAIAAAAgG/EJAAAAgGzEJwAAAACyEZ8AAAAAyEZ8AgAAACAb8QkAAACAbMQnAAAAALIRnwAAAADIRnwCAAAAIBvxCQAAAIBsxCcAAAAAshGfAAAAAMhGfAIAAAAgG/EJAAAAgGzatm3bNlndbuqBBx+KD3/ko9E3sKra09rkxEQMDe6P666/odoDAAAAwCtd7dBQbLn9tugfWF3taW1yYjKGBvfFl2/5dLS3n3p8U9tkobrd1F133xM33nSz+AQAAABwFnux8WnrfXe2jE+m3QEAAACQjfgEAAAAQDbiEwAAAADZiE8AAAAAZCM+AQAAAJCN+AQAAABANuITAAAAANmITwAAAABkIz4BAAAAkI34BAAAAEA24hMAAAAA2YhPAAAAAGQjPgEAAACQjfgEAAAAQDbiEwAAAADZiE8AAAAAZCM+AQAAAJCN+AQAAABANuITAAAAANmITwAAAABkIz4BAAAAkI34BAAAAEA27bVaLVpt9Xq9OhQAAAAAZmrWkxq39t7e3mi19fT0VHcFAAAAADM160mNm2l3AAAAAGQjPgEAAACQjfgEAAAAQDbiEwAAAADZiE8AAAAAZCM+AQAAAJCN+AQAAABANuITAAAAANmITwAAAABkIz4BAAAAkI34BAAAAEA24hMAAAAA2YhPAAAAAGQjPgEAAACQjfgEAAAAQDbiEwAAAADZiE8AAAAAZCM+AQAAAJCN+AQAAABANuITAAAAANmITwAAAABkIz4BAAAAkE17rVaLVlu9Xq8OBQAAAICZmvWkxq29t7c3Wm09PT3VXQEAAADATM16UuNm2h0AAAAA2YhPAAAAAGQjPgEAAACQjfgEAAAAQDbiEwAAAADZiE8AAAAAZCM+AQAAAJCN+AQAAABANuITAAAAANmITwAAAABkIz4BAAAAkI34BAAAAEA24hMAAAAA2YhPAAAAAGQjPgEAAACQjfgEAAAAQDbiEwAAAADZiE8AAAAAZCM+AQAAAJCN+AQAAABANuITAAAAANmITwAAAABk016r1aLVVq/Xq0MBAAAAYKZmPalxa+/t7Y1WW09PT3VXAAAAADBTs57UuJl2BwAAAEA24hMAAAAA2YhPAAAAAGQjPgEAAACQjfgEAAAAQDbiEwAAAADZiE8AAAAAZCM+AQAAAJCN+AQAAABANuITAAAAANmITwAAAABkIz4BAAAAkI34BAAAAEA24hMAAAAA2YhPAAAAAGQjPgEAAACQjfgEAAAAQDbiEwAAAADZiE8AAAAAZCM+AQAAAJCN+AQAAABANuITAAAAANmITwAAAABk07Zt27bJ6nZTDzz4UHz4Ix+NvoFV1Z7WJicmYmhwf1x3/Q3VHgAAAABe6WqHhmLL7bdF/8Dqak9rkxOTMTS4L758y6ejvf3U45vaJgvV7abuuvueuPGmm8UnAAAAgLPYi41PW++7s2V8Mu0OAAAAgGzEJwAAAACyEZ8AAAAAyEZ8AgAAACAb8QkAAACAbMQnAAAAALIRnwAAAADIRnwCAAAAIBvxCQAAAIBsxCcAAAAAshGfAAAAAMhGfAIAAAAgG/EJAAAAgGzEJwAAAACyEZ8AAAAAyEZ8AgAAACAb8QkAAACAbMQnAAAAALIRnwAAAADIRnwCAAAAIBvxCQAAAIBsxCcAAAAAsmmv1WrRaqvX69WhAAAAADBTs57UuLX39vZGq62np6e6KwAAAACYqVlPatxMuwMAAAAgG/EJAAAAgGzEJwAAAACyEZ8AAAAAyEZ8AgAAACAb8QkAAACAbMQnAAAAALIRnwAAAADIRnwCAAAAIBvxCQAAAIBsxCcAAAAAshGfAAAAAMhGfAIAAAAgG/EJAAAAgGzEJwAAAACyEZ8AAAAAyEZ8AgAAACAb8QkAAACAbMQnAAAAALIRnwAAAADIRnwCAAAAIBvxCQAAAIBs2mu1WrTa6vV6dSgAAAAAzNSsJzVu7b29vdFq6+npqe4KAAAAAGZq1pMaN9PuAAAAAMhGfAIAAAAgG/EJAAAAgGzEJwAAAACyEZ8AAAAAyEZ8AgAAACAb8QkAAACAbMQnAAAAALIRnwAAAADIRnwCAAAAIBvxCQAAAIBsxCcAAAAAshGfAAAAAMhGfAIAAAAgG/EJAAAAgGzEJwAAAACyEZ8AgNNufGI8RkdH4+ixo3H06NEYGRmJsbETxWcmpw4AAOBVQ3wCAE6b0dHjMXhwMJ7ZtSu2bXsqtj1dbcXtHTt2xr59+8sQBQDAq4f4BAC8ZGmk09DQUOzcuTN27tgRe/fujVqtFvV6PepH6zE8PByDg/vjmWd2xu5ndpUfAwDw6iA+AQAvydj4WOzft68MSwcPDsaJE6PF3ubT68bGxmLw4MHYu3dPOR0PAICzn/gEALxo4+PjcWD//ti3b28cO3as2juXyThUq5XT81K4AgDg7CY+AQAv0mQMDR2M/fv3xfHjx6t9U9o72qNnyZJYsWJluS1evLjY2zb1ycLkxETUDh2Ko/V6tQcAgLOV+AQAvChHho/EgQMHnreA+KJFi2PtmvWxefM5sWnTpnLbsGFTLF/eWx0xJX1dWvtpYsIV8AAAzmbtaTHQVltaKBQAoNHU2k2DceTIkWrPlJ7Fi2Pt2rWxZs2a4nZPdHYuKLfe3mWxYsVAdHcvqo6MmJyciNETozEZE9UeAADORM16UuPW3tvbW/xCeOqtp6enuisAgCnDw4fLXyRSQJrW1dUVKwdWR39/f7S3zx5c3Vb+XrFiRX8s6FxQ7lm4cGEZqNrbDMQGADiTzW5Jsze/7QEAL8iJsRNRO1Sbsc5TW1tbLF/eF339fcXt5r9edHR0xMDA6lizdm2sWrU61q5dVxzfX34tAABnL/EJAHhB6kfqMXzkcHHr5FpN3YsWRV/fyVFNp7JgwYJYvXpNbNi4MQYGBuY8HgCAM5/4BADMW7pK3ZEjh2dd3a4tli1dNu+p+mmkU0d7R7o1tQMAgLOa+AQAzNvI8eNx5Eg9JidPjnpauLArli3rLafVAQDAbOITADBvI8dHYmTkWPXRlMWLe4ptcfVRXmMnTsTRY0fLq+wdqR8pnsvIc/sPHToUg4MH4ljx+WYmxqeurjc+NlYulJ5Gb00vnD58eLi8r4mGBdSnTJZrXB07ejTqxWMePVqP0dHRGfHthRgbHyuf3/DwcBwpttHiOTQu2t7KxMRkjBwbKb7+WIxPjFd7k8ny+0/PP30+fY8TL/L5Jem8HK3Xy3Oc/hwdnRrllvYfLM7vwaGDcaI4BwAA89VW/PLU8reTu+6+J2686eboG1hV7WktDccfGtwf111/Q7UHADgbpF8Ynt3zTOze/UwZQpL2trZYu25DrFu3tvgozzS6qeB0LIYPH456GX+OF4+fgk1bdHZ2Rnd3dyxatDj2799b7k8hbNOmzcX+ReXXp1CTwlGKTCnQpKvsLVjQFcPDU4ump69JV+db2NUVS5YujeXL+8v7SI9Thqnh4Tg+koLPZPH9Riwovn5Jz5LoXb48FhePOx8pYA0X93X4yHAZsk6cGIu0LvvCru5Ylh6zr++559tM+nXtwIEDMVj8jpVeiN7lvTGwanUZr9LzS9/faHGeigOjo7OjDILLenvL5zmfBd3T95pi2HB6fsW5PlHcV3qN03np6lpQPrfx8fE4fLhWHN0WK1asKBeOt2YXAJxdaoeGYsvtt0X/wOpqT2uTxe8LQ4P7Yut9dza52vFJ4hMAMC8p4uzcsT32799f7Yno6uqKzZvOKeNJDinUHBg8UI5qmj3iqlFayDwFk6SzuL1+3YZYtWrqd5cUrLY9/VQcOzZSjjLq7OiMifTP+PNHHKVfmtIUwjVr1pajqA4Vv4BN32+j9o6O6C2OW71mTSxdsrTa21wKQ9PfQxo1VdajBmm64rJly8orAC5duqxpLEpBaOeObVE7nBZ6j1i0eHGsLo4/ePBg1OtHyjDUKEXBniVLYmDlquhPVxRs8ctgrXaoDFtHjgxXz6+5xnOcYt+5554373W+AIAzQ674ZNodADAvabra7DjRtaAruroXVh+dXmmUzc5dO+PZZ/e0DE9JYyBKI6WOV1PFkrbJqdwzPb0tTX1rFp6SNAoqRaL9+/aWQaZZeEomxsdjaGioOG7frMXXZ0rT+nY/uzsO7N9Xji6aHZ6SFI6Ghg7F7j3PVCOLnn9Mmu54rJpimKTntXv37vL42eEpSdPu0oioPXv3xFDx/TS7z3Qf+4rnv2vnzjh4cLBleEoaz0WaOpim9wEAzIf4BADMS4ocY2Nj1UdTFnQtyDL1Ko3w2f3MM+WonBdjfOxkkCmzy/PbS6m9va3JQumTcfDQ0Ky1mNqiLc2Tm2GyfH6HDzePO0fq9Xh277NxaOjQPNZgmozhw0di3769Ua8/f82qieL7GW8IZil+Ta/F1EoaOXbw4IEYGXn+sUNDB2PPs7vLNbRejPHxmf8uAACcivgEAMzL2PjMAJKkqVgdHaf314k0qmbf3j3l+kOzpWl+aVrcihUro6+vr1y/qakZM9cmo9myR4t7emLt2nWxceOmcspbmq43LS0jMC2tKZWm8K1fvy5WrByIjs7O6jPFORkbi8PDw5HWcGp04sRoHNi/P2qzRh2lgLV06dJYtXpNrCzuK933SZNldEujkNIos0ZpIfTJaIhPDc8vfWtpGtyKlStjYGB1+X01SiOg0gisRik87d27t1wzarbuRd3luU3nOE0HXNDw/TZKI8oAAOZDfAIA5iUFmZlXg2uL9vY0auj0/TqRpswdHBwsp77Ntnx5X2zavDnOPe+82LRxU2zefG6cc865sXr1muiaFaEa102aLJ7n7CUu00Lha9esK+PTwMCqWLduffQV9z+Vck5KcWhNcdyG9RuKY9fH+nXron95f/XZKWl0UZoWNy09Vu1QLQ7V0uipk4/bUZyrgVWrYuPGzbFxw8Yyeq0t7q9x0fJ0jtP3PnzkSLWntXT++1esjA3F/W0q7nfDxg2xJp2Prq7qiKlAlq5cNx200qLrad2u2VMZFxRfk87lOeecF5uL85qeX7q9cdPmWNG/ojqqwTwWMgcASMQnAGD+GhpOag9pJM/pbBBpXaO0ltJsaZRQCix9y/vLdabSKKU06iqNghoYGCivetcoLbg9ra0MQA0fF895eX9fLF++vLydpPtasmTJjFFcKWCl4NXf1/fcaKeFC7tjybLiuIbHS2shNY4gSmsnpfB0YsYaSm3Rt6J/ahH04n7r9XoZhDqKx+9fsaIMU9NSHEqLfzeOvmomLSKeRjulgJW+l3QO0mLqS5YsLUdCNTpe3Gd5NbxCmiqYFmFvlL7/FK3Wrl1bLqCeplKmfWlkWRoB1VucgxSnGrVaxBwAoJHfGgCAeWkrfm2YMaJoMrWoFHYaitRLNHz4cBybNSInTf1avXp1LFq0qNozW/GcZo1smjnyKW0zQ06KPbOvyJJGC3V0NEastql9nTPXhOpasHDGOlHjExNxYuzkYtwpLNWPzIw7S5YuieMjx8ur7m17+snYtu2p2L59W2wrtrTQ+Mz1pSZj5Nix4j5br6nUm66Qt3IgFnXPPC+dCzqfNx3xxNhoOaosrROVFilPtxv1968oI9OCBTMD03OK8zt79Fh7Fe4AAObitwYAYF7aOtrLBbpPmiwXvp7VJF6S+tGZ083SCKe+vhWxePELu6T/jLBUVrLG591cGsnT+P2l2JKujDdbe3EeOhruP11ieGJsKh6liHTsWH1GjEqOVOsupdFOR9M0vTQSafR4OSUuXXlv9oLkKTyNTzRexa6t/GdaGuGURmUtWjxzhFOSolCKZo3fy3jxHFMkSwHs6LGZcS/dR5pWl0Y6zVc6tjHwAQC0Ij4BAPPSmaLLrOltacpZs0v9v1jHZ13uf2FXVzkdbi6zA9jMkU/pk/MoZOWdnDwu3UUKS7Pvu5nptbDKwFN8D7NHCb0QaSpg98Lu6GyYijdbusrg4sWLmwagtC+tgdU4lW86XKUpgbMXGV9anN+euc5x8e00PlJ6jMapjQAArYhPAMC8pNE2s6dlpdE702sJnQ6z1znq6lo454icFHpmZ5AZUWYyHVPdbiHdz4zj0v026StTQar5HabnPz42M8alkVIp1EytjzX1ZxqVVP5ZjqLqKNdYSlPl0npNaV2otM1YY2nWpeXK76/4+lPpWdwTS3uXF/ffUU4lTFfYS4unzx6RlaR1rOY06zyU34c1nwCAefJbAwAwL2nU06Lu7qnwUSmncc1avHpuk+V0szQCZ3YMeV7TaXisU0lHTI1umpKm6jVOu0ufa/z8qUyk6XMN8Sslral1rqodlfKqf8Wx09rSkc8dk6JSdbOysKs71m/YGOvXry+2DVN/rtsQGzdujI0bNpVX8Nu0+ZzqKnPnFMdueN5IpPRM5vEtPCeFprVr1pZX1UsLtafbad+MKDetya7ZZse2Mj5VtwEA5iI+AQDzkoJDmurVOBIprYk0XKuV07nm6+DQUOzYsb1cdHvXzp3lAtjT0kigRmlh7MYg1MxEmZZmxZHGtZum0s2c0rpLjfeS+lXj/Uwrj2tcIDyFmLapKW5pLajOzjRi6eTXnTgxWi4CvmbNulizdmpbvWZtuYj6qlWryyv59ff3lwurL160eMZ0uWnpO2gajlpIr9X0KKrptaEaF0qfNnvx8Waed4aLp/JCnw8A8OolPgEA85Yu4Z+iRqPDw4djaGhoZpA5hRQ60hXtBgcHo1b8OTR0MGq12nOBqWvWFLvjo8fLxblbKae5tRgVlEYmnWKW3AyTE+Ozpv21VSOoZkaW9H023l367PTi3imeLV68qPjz5NekUV7pexwdHSmPLbcy3Jw8JikXKz96tDg3B+LQoUMz1tKabHte/pmnmY+RpjGmxcgbpQXQZ68D1SiNTktTDWdEqskXHsMAgFcv8QkAmLfu7oWxbFlvuY7QtLTo+IHB/XHw4MFZV2ibKQWmodqhMqxEFVLGxyemIkbVMVLcapSiyKFDB+NEk5FV6XEPHhyMZ3bvmjNQzUd6LjOjUlvTkULp+5gxDa14/ien+bWV6y0t7l5UfTwlxaf9Bw40HSGW7mlk5Fjs3bs3tu/cVo4K27lze/lxuhJekqb/pcd5qdK6UrPXeErxqVa8Ls2k53tg/7549tlnqz0AAC+c+AQAvABt0dvbG0uXzlyT6Gi9Hs/u2RN79z4bR4rb42NjUyOEJidjYnw8jh07Fvv27Y19xefTIuXTFi7sip4lPdFeLZ6dFtyevcB4GlW1t/jaNCooRagUmlLA2r17d+zatTOODA9XRzZ4EYOEpp/vtDTlrnHtqGlp2l1xYPVROiMzj0sBbVla7LthXzofB/btiz17dpeh5/jxkRg9MRr1I0dif/G9peC0p/h+hg8PlyOlyu+xNlQeV0p97kV8T7OlaYHp6naNUsTbVzy3/fv3FY93vPz46LGjceDA/uJ5bSvO8a6Tz6PB3OPcAACmiE8AwAvS3b2oXKcorU/UKAWLZ3fviR3bt8X2nTvimWd2FdszsXPXjthe7Nu9+5lylM20NI5n6bJlsaRn6dSOwpIlPbFs6bLqoykphqRo89TTT5bb0089Ua4XtW/fs2UsmW0+60Q93+TUlLsZ8Sldle75I59mX+0uHdd45bc09a6vv7+MdFPf5ZQ0fS1Fnqn1ropztO3p2LZjWzyza1c5Miqtn9UohaLp0U7l/z95Vy9aWox92fLlz5s6mV679DyeKs7tk08+EU8/+WS5HlcKf81MlKHu1KPcAAAatW/fvr34hfDUWxryDQDQKIWVgVWryhDVKE27q9ePxOCB/bFnz7Px7LO7y+AyPHx4xhpGSbqiW3//yhkjnRYs6IoVK1fGokUz7zdJ4erw4cPlyKoUpFpJo62eM/lcw3nOfNYrSiONmh+XPlHdLKRDpkduTUthbmBgVSxbdjKsTZksRzWlRdbT6K00Ymx2dErS2kzLl/c9b4rc6bB0ydLnnfckxbEjR46Ur1WKUbOvRNgohbpyrS0AgEKzntS4tW/evDlabelKLAAAjdKIoJUrVpaX8E8RqbmZI4Qa9fQsKa/0tmzp7DiTwtby4vePNc8LW610L5oZaUYb4tTsxb3T4uCzr6qXPt/e0Tnj6nbpdrP4lNaBamuITek7fP5RU4Fu9eq15Z+Nx7eSHi+NSkq/f/UX53d6IfPiE1N/niYrVqwotucHqFZStJqW4l+rOAUAvLo060mN2/x+EwIAmKW9oyNWrFwR69dvLC/nnwLQXJElXWktRY9169ZHf39/GVuaSaOG1q9bF0uXLosFnScXN59t6v5WxMb1m8rFtJP0NX19feXtpGNB54yr6KWvWdg1dWyjRd2Lovu5kUZtxe2F0dnksbvSot0NX7+wuL9mx6X7WL68tzw/q1dPjRI71febpu1NTWdcFRs2pPO5esb3nUZWNVt/6sVK5yAFrlXFNlfkS6PQ1qxdF0uWTU2HTM8rvT5Lek4VHQEAZmqbPNV/kqzcdfc9ceNNN0df8UvGfKRh2EOD++O662+o9gAAZ7u0SPbRo/Vyyt2xYyPlyJiJ8bFyVFCKJp2dCyJdKW9xz5IyWsy+3P+ppKl2aRpYWpj7+Ojxci2nFGI6F3SWC3unUVdLFveUI4MOHDhQPO5o9K9YMSOMTEyMl587NHSwfD7pan1pymBnwxX7kjRlcLA4Lk2JSyO7lvf1RX8ZsWYGo3Tc/n37ivsbKkdHLV/eHysHVkZHk/WhpqWpdWmK3fCR4Th29NjUulTFr2AdHe3lVMMUeNJosMWLF5XnarY0VS8t6H505Gh0L1wUvct7o3fpsnINp5cqLXKevudjx46WI8Ymi3/SiKuFXd2xuHheS4rHWVKc57RofFqUfEHx/FLwSxEOADi71A4NxZbbb4v+gfnNgktrYQ4N7out993Z8j+UiU8AwGk0GWNj4+WaS+PF7wRlyGhrj47OjnK62uy1kX5S0pXsjh9P08Qmy/B1ql+O0q9FKaSl3jQ18qj5SKUUtEbT/RWfTuszPTc9bg4TxS9o4+Nj5WOkx0rxqaN4nM7i3Jzqsaalq+OldZZScGo1GgwA4MXKFZ9ent8AAYCzVFs5BS2NikmjedLC293d3eVomZcrPCVpOmAaeZWeS8v/KtfWVq6DlJ5vqxiURkalaYZT9ze/8JSkY9P9l+dm8eJyQfGpEVhz30dXNUJKeAIAzjTiEwAAAADZiE8AAAAAZCM+AQAAAJCN+AQAAABANuITAAAAANmITwAAAABkIz4BAAAAkI34BAAAAEA24hMAAAAA2YhPAAAAAGQjPgEAAACQjfgEAAAAQDbiEwAAAADZiE8AAAAAZCM+AQAAAJCN+AQAAABANuITAAAAANmITwAAAABk016r1aLVVq/Xq0MBAAAAYKZmPalxa+/t7Y1WW09PT3VXAAAAADBTs57UuJl2BwAAAEA24hMAAAAA2YhPAAAAAGQjPgEAAACQjfgEAAAAQDbiEwAAAADZiE8AAAAAZCM+AQAAAJCN+AQAAABANuITAAAAANmITwAAAABkIz4BAAAAkI34BAAAAEA24hMAAAAA2YhPAAAAAGQjPgEAAACQjfgEAAAAQDbiEwAAAADZiE8AAAAAZCM+AQAAAJCN+AQAAABANuITAAAAANm012q1aLXV6/XqUAAAAACYqVlPatzae3t7o9XW09NT3RUAAAAAzNSsJzVupt0BAAAAkI34BAAAAEA24hMAAAAA2YhPAAAAAGQjPgEAAACQjfgEAAAAQDbiEwAAAADZiE8AAAAAZCM+AQAAAJCN+AQAAABANuITAAAAANmITwAAAABkIz4BAAAAkI34BAAAAEA24hMAAAAA2YhPAAAAAGQjPgEAAACQjfgEAAAAQDbiEwAAAADZiE8AAAAAZCM+AQAAAJCN+AQAAABANuITAAAAANm012q1aLXV6/XqUAAAAACYqVlPatzae3t7o9XW09NT3RUAAAAAzNSsJzVupt0BAAAAkI34BAAAAEA24hMAAAAA2YhPAAAAAGQjPgEAAACQjfgEAAAAQDbiEwAAAADZiE8AAAAAZCM+AQAAAJCN+AQAAABANuITAAAAANmITwAAAABkIz4BAAAAkI34BAAAAEA24hMAAAAA2YhPAAAAAGQjPgEAAACQjfgEAAAAQDbiEwAAAADZiE8AAAAAZCM+AQAAAJCN+AQAAABANm3btm2brG439cCDD8WHP/LR6BtYVe1pbXJiIoYG98d1199Q7QEAAADgla52aCi23H5b9A+srva0NjkxGUOD++LLt3w62ttPPb6pbbJQ3W7qrrvviRtvull8AgAAADiLvdj4tPW+O1vGJ9PuAAAAAMhGfAIAAAAgG/EJAAAAgGzEJwAAAACyEZ8AAAAAyEZ8AgAAACAb8QkAAACAbMQnAAAAALIRnwAAAADIRnwCAAAAIBvxCQAAAIBsxCcAAAAAshGfAAAAAMhGfAIAAAAgG/EJAAAAgGzEJwAAAACyEZ8AAAAAyEZ8AgAAACAb8QkAAACAbMQnAAAAALIRnwAAAADIRnwCAAAAIJv2Wq0WrbZ6vV4dCgAAAAAzNetJjVt7b29vtNp6enqquwIAAACAmZr1pMbNtDsAAAAAshGfAAAAAMhGfAIAAAAgG/EJAAAAgGzEJwAAAACyEZ8AAAAAyEZ8AgAAACAb8QkAAACAbMQnAAAAALIRnwAAAADIRnwCAAAAIBvxCQAAAIBsxCcAAAAAshGfAAAAAMhGfAIAAAAgG/EJAAAAgGzEJwAAAACyEZ8AAAAAyEZ8AgAAACAb8QkAAACAbMQnAAAAALIRnwAAAADIpr1Wq0WrrV6vV4cCAAAAwEzNelLj1t7b2xuttp6enuquAAAAAGCmZj2pcTPtDgAAAIBsxCcAAAAAshGfAAAAAMhGfAIAAAAgG/EJAAAAgGzEJwAAAACyEZ8AAAAAyEZ8AgAAACAb8QkAAACAbMQnAAAAALIRnwAAAADIRnwCAAAAIBvxCQAAAIBsxCcAAAAAshGfAAAAAMhGfAIAAAAgG/EJAAAAgGzEJwAAAACyEZ8AAAAAyEZ8AgAAACAb8QkAAACAbMQnAAAAALIRnwAAAADIpr1Wq0WrrV6vV4cCAAAAwEzNelLj1t7b2xuttp6enuquAAAAAGCmZj2pcTPtDgAAAIBsxCcAAAAAshGfAAAAAMhGfAIAAAAgG/EJAAAAgGzEJwAAAACyEZ8AAAAAyEZ8AgAAACAb8QkAAACAbMQnAAAAALIRnwAAAADIRnwCAAAAIBvxCQAAAIBsxCcAAAAAshGfAAAAAMhGfAIAAAAgG/EJAAAAgGzEJwAAAACyEZ8AAAAAyEZ8AgAAACAb8QkAAACAbMQnAAAAALJp27Zt22R1u6kHHnwoPvyRj0bfwKpqT2uTExMxNLg/rrv+hmoPAAAAAK90tUNDseX226J/YHW1p7XJickYGtwXX77l09HefurxTW2Thep2U3fdfU/ceNPN4hMAAADAWezFxqet993ZMj6ZdgcAAABANuITAAAAANmITwAAAABkIz4BAAAAkI34BAAAAEA24hMAAAAA2YhPAAAAAGQjPgEAAACQjfgEAAAAQDbiEwAAAADZiE8AAAAAZCM+AQAAAJCN+AQAAABANuITAAAAANmITwAAAABkIz4BAAAAkI34BAAAAEA24hMAAAAA2YhPAAAAAGQjPgEAAACQjfgEAAAAQDbiEwAAAADZtNdqtWi11ev16lAAAAAAmKlZT2rc2nt7e6PV1tPTU90VAAAAAMzUrCc1bqbdAQAAAJCN+AQAAABANuITAAAAANmITwAAAABkIz4BAAAAkI34BAAAAEA24hMAAAAA2YhPAAAAAGQjPgEAAACQjfgEAAAAQDbiEwAAAADZiE8AAAAAZCM+AQAAAJCN+AQAAABANuITAAAAANmITwAAAABkIz4BAAAAkI34BAAAAEA24hMAAAAA2YhPAAAAAGQjPgEAAACQjfgEAAAAQDbiEwAAAADZtNdqtWi11ev16lAAAAAAmKlZT2rc2nt7e6PV1tPTU90VAAAAAMzUrCc1bqbdAQAAAJCN+AQAAABANuITAAAAANmITwAAAABkIz4BAAAAkI34BAAAAEA24hMAAAAA2YhPAAAAAGQjPgEAAACQjfgEAAAAQDbiEwAAAADZiE8AAAAAZCM+AQAAAJCN+AQAAABANuITAAAAANmITwAAAABkIz4BAAAAkI34BAAAAEA24hMAAAAA2YhPAAAAAGQjPgEAAACQjfgEAAAAQDbttVotWm31er06FAAAAABmataTGrf23t7eaLX19PRUdwUAAAAAMzXrSY2baXcAAAAAZCM+AQAAAJCN+AQAAABANuITAAAAANmITwAAAABkIz4BAAAAkI34BAAAAEA24hMAAAAA2YhPAAAAAGQjPgEAAACQTdtkobrd1F133xM33nRz9A2sqva0NjkxEUOD++O662+o9szfoaGh2LljW5wYPV7tAQAAAOCF6FmyNM459/xY2N1d7Zmf2qGh2HL7bdE/sLra09rkxGQMDe6LrffdGe3tpx7f9IqJT/fcfUfs37c3rr3m9bF21YpqLwAAAAAvxAMPPxUPPfp0vObSy2LzOedVe+d2VsenJ594NHZtfzq+/fn/GMt7l1R7AQAAAHgxvr/l/vjN3/n/4m3XvjuWLFla7W0tV3x6Raz59PQTT8QffOxDwhMAAADAafD2t1we7377VfH4ow9Xe14+L3t8SgOvxifG4+o3XFrtAQAAAOCluvaaK2L48OHqo5fPK2LkU9LW1lbdAgAAAOClmmotLVdb+ol4xcQnAAAAAM4+4hMAAAAA2YhPAAAAAGQjPgEAAACQjfgEAAAAQDbiEwAAAADZtG/fvj1abXv37q0OBQAAAICZmvWkxq198+bN0WpbvXp1dVcAAAAAMFOzntS4mXYHAAAAQDbiEwAAAADZiE8AAAAAZCM+AQAAAJCN+AQAAABANuITAAAAANmITwAAAABkIz4BAAAAkI34BAAAAEA24hMAAAAA2YhPAAAAAGQjPgEAAACQjfgEAAAAQDbiEwAAAADZiE8AAAAAZCM+NTE5ORn7B2tx572PxHd/eH/c//DTMXzkWPVZToeRkdF45PGd8d0t98f379waT27fEydOjFefBQAAAM4WbZOptLRw1933xI033Rx9A6uqPa1NTkzE0OD+uO76G6o9raWH//pXvhBbvvan0busp9r78hkfn4gfb30yvvzNO+P+h56OYyOj0d+3JK583YXxgXdfHRedvz7a2tqqo+fvc1+9Pc7btCYuv/S8as9JX//Oj6K7uyuufcvrqj1nt337h+LL376rjE7pdjqfG9YOxDvfenm8/11XxfIX+O9B+nfoG9+9pzyH17zx0ujs7Kg+AwAAQCs/uGtrfOkbd8T+g4fjoce2V3tn+o2/9YG46YPvrz564b75/R+X7/ve87Yrqj38pHzyc9+M3//3n4hr3/2+ak9rtUNDseX226J/YHW1p7XJickYGtwXW++7M9rbTz2+ycinWZ54enf8xee+E9+87d7o610Sr7vknFiwoDO+8I0t8ckvfCd27Rmsjpy/b3zvnvhXf/Tp+Op3flTtOSn9cP/l579bPuarQRpB9oVb74jPfvH7sXf/UJyzcU1sXLcqnt6xpzgP3ylD3PHjo9XR8/Pw4zteVecQAADgdEnv0b675YEYHx+P973zqnjftVfGe97++njXNVeUAyTedvVrY2BFb3X0C5dmvHzqlu/FX/zVt6o9vBqJTw1OnBiLu+9/LO7b+mS86Q2viQ/d9HPxTz/0S/EPbrohrr7iothy9yNx74OPlyNtXpDp41t8XRox1mjLjx6OP/4fX4x7Hnii2nPmm5iYjPseeiq+/YP7Y3lvT/zdX7muPL+/c/Nfj7923TUxOjoWt952bzz21DPVV7ww6Rx2dJz8V/qHd0+dwx/d/3i1BwAAgEZp5Epy2WvOiY/9478dH/snvxa/++Eb419+5Nfj9/6vvxt/8M9+I372p95cHjOXhx7fER//sy8X7/nui2PVoIL0/rncXvgEIs4i4lODsfHxOHCwFqMnTsQlF26KSy/aHP3Ll8YVl54XP//T18TPFD9wF5+3sTo6r9vvfjg+++Xvx/e2PFDtOfPVj47EHfc8HIeHj8QH3nN1OY1x47qBOH/z2vjZ97853nDZeeUIqLvvfzzGxl76+k9bisf6zJdui9vueLDaAwAAQKOJ4p/kdLwHu/eBJ+KzxXuwNKjgiHWTaSA+Nejo6IiBFctj4YKueOCRp+LBh7eVi2CneYtvesPF8Xd/9f1x8QUbXtSaT42my28rb7js/HjHmy+L173mnGrPme+ZPQfKEr521Yq4+oqLyzWapq1e2RdveN2F0dW1IB4pjjk4dLj6zAvT+Nqkc5iGiV528eZqDwAAAI3SDJVkjreo83LpRZviXW+9ohxY0LO4u9oLER0fK1S3m9q9e0987vNfjEU981wEuvg3duTY0bjgwourHXN78onH4jd+7YboXngyRrwc0pStRd0L49n9Q7HlR4/Enr0HY3xiLJYt7YklPYuia8GC6siTdu7eX07HSyOUdu7ZX3799MLpX7z1jrjla1ti34FD8fDjO+Oi8zYUxz1YTgdL+7723R/FI0/sjAMHD5ePff9D2+J7d6S5thPxmgs2lgtnn7txTazoW1bef6rIT+14duoKfI88HUePHS9HDk07MTYeu58djO/f+WB8/46t8cS23cXeyXjwkW3lc0rP7eV079Yny7nEKQa9+22vj4ULT57PFPiOHRuNu378aDk888rLL4xduwfj1tvuKfYfL0eCpbWdUgxcuiS9Fp3lsZ/+wm2nPIcXT5/DTVPnMNm150D5HG793r2x9dHtMTY2FuvXrCw/t+OZfXH7XVvjmWcPxI/ufyJuK+7n8aeeidSzVq3sK48BAAA4mzz82Pbi/dZD5fvVVQPLy9lAg0OHi204Dh46/Nx7qd3F++OvfvuuMiot711S7ku+8PUtcce9j8SqFctjRf+y8r3d+jUD5dd+8pbvxkOP7ShuHynemU7G1ke2l+9t03u/C85dV90DOW195On4QfHedvO551d7Wjs+MhK7du6IRT0nX+OWJiNGjtXjt3/rN1sO1On4nd/5nY8dP348TrXt2LkrvvTlr70q4lOS1iJa2dcbx4oTntYnuv/hbbHjmf1xYnSsnIK3eNHJgPPok7vik5//bnzpm3eWP0BPbtsdgwcPlzGjb/mS+MwXvh+3fP2HZXhKHntqVzz+9DPl1/UV9/X5r95ehpP0g51iVPpc2jatXxX7ix/4//aXX4tlSxeX0/5+999+Ih55cmfccc+j5TSye+5/Ip7avqeMKxefv6GMMlsf2xZ//plb4/Nf2xI/fvDJYnuqeKxnir9ItsaF526IDeumIsvLJU25e+CRbXHlZRfEG19/cXTMWgl/pPj37a77Ho+hw/V44+UXxp0/fjQ+9YXbytfh9rseKte/SuegrfiXOy1SftePHyvP0anO4eBQLf7rJ75axqorXnt+GZc+Vfzl96Vb7yj/ck33t23X3uju6ir/4rv3wSfiT/78K7Fn31B85otTj5uew7P7DpYL7K1bs6J6pgAAAGeHrY/tiB/+6OFYULy3/EHxvisNlkjvv35QvGe6697HYmPx3mr1QF9s+dFD8T8//c1yEER6b5kGaaQLRv3ZZ75ZvhdOa0al/9j/R//9C3Fi7ET5HjW9X0vvf/cPHooDg7Vyfd/0fm31quXxlisvqZ4BOf2k4tPf/pu/HKOjo027Uto6fu/3fu9j3d3dcapt/4HBV83IpySVutWr+uK8zWtjac/i8ofkgYefKkfJpHKbpuWl8rt772B86vPfK6+Ct27tinjv218foyfGygi1qLurnKY3MTkRV11xYby5+KFKP8w/9763xM/81JvKtaOufv1F5Q/nm15/cVmB165eEX/zF94dP/WOK+P1rzu/eMyn4/6HniqOObecPvb5r/8wHn1iV1x68ab4wHveFJs2rC7+UnioeMzxcn2qY8WL+Ym/+nZ8/66t5RpK17718hhYuay8ml6au/vmq14T5xRf83JKo5cefWJnXHn5BXH5Jec+r4qmv8TSQusHh4bjLVddEvsO1MqgtrBrQVz7lstjzeq+eKL8y2p3DPT3xgXnrW95DtMoqPuL85iOecNlF5SR8Ovf/VFx7laV5zC9zluK53R05Hh5zg4PHy1jU3qO1737quJ+3lDGxjQKLtX9t77x0uqZAgAAnB22ProtttzzSPT1Li2n4JVbGqdU/Lls6aJ44xUXlf8xfuT4aDy1Y0/ct/WpclZQilWfvOV75QyV6951Vfz1699ezk5J75/SVc1/9a+/OzYX772uLt6vHT5yLPr7lsSv/Y33xnve8fp44+VT90l+P6n49I/+4f8WixYtatqV0mbNpyba29rK6W6/8gvvit/+9Rvi53/6bbGwqyu+8q2747Nf+n7s2z8U9z/0dPmDlX6ofvFn3hEb1g7Em9/wmvKH6457Hy2jxzvfenl5FbdlSxZV9xzxiz/7jnjP266ISy/cVF4x4JILTy5g/ks/d2184L1XlyOZxicmyjiTppdNu/j8jfE3f+E9cdMH3x+/8NNvLUdE7XxmXzn174GHt8Xd9z0e529aGzf+8vvj7/3qdfGbf+v6cuhkuq+xE2PVvbx8JibSAnYpODUfijc2VjzPsfHoLL7n9H2nUV1JmqJ389+5Pv7+r/1MXP+eN5VxKk2tW7l86fPOYTq/0+cwxb/0k5DWkdq2c2/86P7HonvhwuKYa8tz+MGfe2e88fUXxa7i/KUpisXPTOm973hD8ZfiT8Xf+aX3xfXvfVPx2q4sgxcAAMDZZnrNp9ddem58+EO/FP/0t4vtt36x/PNf//Oby/euyWsvPqccUJGWpPnad+4u3x+n98TpSvHve+dV5THpvtL6xl1dneX76p9575uf+/okvedN+y656OQ+Xh3EpwZpnaCntj8bW8vRQhOxaGFXXHX5BXHTr1wXv/7B98WaVf1xR/HD9fCTu+LRJ3fGnn0Hy6li//Lf/UX8m49/Nv74f34ptu/aFyMjo+UompdiekHyNOonmb78Ze/SqRFoF5y7vpxPm55DbfhIOaXs6MhI+RfG6y87r1zfKdXoNApr7MR4jIxOXeby5bR4UXe5ftLRoyMxXn0/jdLUuYOHhstYt2xZT/kXVlvxz9j4WFnV01DPt7/5teVIsyee3h279gxWX9ncRBXwuhcuKIPVs/sOxcr+pbFu9dT0uQvPW1+OeErnMI1wS6P2UhZLf0lOL4aeany6nUZlAQAAnG3Gy0ECU1IUSrEoXfm9MRpNe9c1V5SjnEaOnyhnrZyzcXVc/96rnzs2vQdL0qymtCYvTPNvQ4O0gNp/+cRX4k/+7Evx+FO7yn1psbTepYvjrVddEhedvz5qh4/E/gOHol6fihFvu/qy+PkPvC1+4QPXxAf/2jvLETU3fvCn4sKXuHhaijMpvCxYMDX6p2pRM1U70x8pnCUd7R1lPEnS6KGFxQ/9+OREGcRebiketbe3lfOAh2fFuRMnxuKxJ3fFkfqxchH11emqg11To77SaKjpGr+ir7d8PY6Pnoj6sZFy36mMjxfnsDgXnZ2d5bTE8fGxMsilqxpOm153aqI4iekvyuef56lzOdfVCQEAAM5EzQYGtJLWe0oXtEr/ET9NyUvLnExLs27SW6g0eGD2Miu8uolPDTo72svQkVbj/84P74v9g7UqSExGbfhoHB6ux4KOznI00qqBqfmpKUb9yl97Z/yT3/ql+N//3s+XU7bSqKl0xbxpVfxt6lRRY3qa3HQoSVcGaJRC2XR86S6eTwo7ncWxaURWGr2VpNKcAk56jBRrXm7nbV5TjjpK5zct9j0VlSbK8JOec5qumBale91rzi0XbF/QORWf0t+F6fsfLb6HZ/YciAMHh8u1mNJC4skpz+FYcQ6LT01fxbCjeO2GjxyNkZGpcJimK6b7W7OqL1YsXzbrDE9J0W50dOy5CAgAAHA2magGMszHI4/vjC99485y4EBan/gHd26N27Y8WH126grs6f1Zeh/73JrOGhQF8anByhW9cc3Vl8aSJYvjy9+8K/70z78SX7z1jvj6d+6Jz3zxe+Wi45s3ri4jyutfe3685sKNcett98Zffu475ULWn/7C9+I//fdb4g/+06fiK9+6q7rX54ejRqcKJ2kkU1t72/OuCDcthZhjIyfK6JSmhb324s3lyKz0HD/5he/GN4rnk57zjl37qq94+X/i01US3vrGS8qpip/8/HfiU8XzTAux37blgfL2w49vLxcjTwvSpRFnCxZ0lrU8rWv11W/dHbcVf7F94dYt5dXnLjp/Q2xcO1De76nP4Xj59ekcpulzaT2udBXBbxav2Q/u2hrf/P698djTz5Sjqc4/Z231VTOlqYxp1FVXFcIAAADOJo3vV9NFr+594MnyyuJ33vtIebX1u+97rPzcM88eiC9/687yvVR6P/z+d15Z7k9XE7/1e/eUt6en3XV0NL7/VJ8Qn2ZIQwPffc0V5WLe6epm6QfrP/7XW+Lf/ulny6va9S9fGj/97jfGheeuL4cX3vD+t8b556yLz3319vj4n30p/vBP/1d5WcqLL9gQl196bnWvp44jydQqQ8+XviQtuJ2mzSXlkMW2qWlkSZq+lqJKGu20cMGC8kp2aXHs9WtWxLe//+P4w//yufifn761vIxlmr43vXbUyymtofVT115ZLiCeRob9l098Nf7VH306/vXHPxvf/eED5YLqN1z31jh309RV+aYXqUuX5kwh8N9+/K/itjsejAuKc56uLpjWvEpOfQ6Lc9TZXi44nqbyveuay8vLgf7ZZ78Z/+G/fq68z3QO032lOc3pPJWqc5ykz7cV5z3dBwAAwNkm/Yf/5LNfvC1+6yP/If7B//0f4x9+9D/H7/zzj8c/+tgfx//xz/5z/HnxHur+rU/H7Xc9FJvWryov/PS2q19bvLe7orx4Uxq08fSOPeX72CRdsGtailut3hPz6tDxsUJ1u6ndu/fE5z7/xVjUM7XQ9ZyKf6lGjh2NCy68uNoxtyefeCx+49duODks72WUnkO6hP/6tStjRd/ScnpXGhlz5WUXxM+9/63xzre+rpzClbzmgo0xsGJ5LO3pLn5gO8po8s63TF3hLl3pblq60lr96PFyZNIVr515ecPBg7XyyngXF597y5WXVHujvFxlimFXvu6CWLdmRdz30FOxekVfvPnK15RXF0hzbNP9LlrUFW9546XlyJ40pW31wPLoWtBVfu15m9fGiv6lcah2pFwYLi2u/XJLzz09j4GVy8tzm64+t3plWkj8sjI8vaE4z9N/+aWpeFvueTje/qbXlqPS0mU+r7z8ouL8vrU4Lxc+dzW8GefwqpPn8JEndlbn8MLyHKZQmOLT4uL1a+toj0su3BTXveuN5Wi3pcXzOlSrx849B8pF9tJfpMnoifHYve9gbFg3EG96w/z/nQYAADgTHD8+GsdGRqN/+bLiPWV/rC229P4pDWxYV7wv3rR+IF570eZY3rskBoeG4+orLopfvuHa8r3dquJ9XWdne7nObrpY18FDR4r3UGPle600aCMZPHg4HnhkW/lxmgnDT9bWR56OH9zxQGw+d2aLOJXjIyOxa+eOWNSzpNozh8mIkWP1+O3f+s3nBss00zY5R4K86+574sabbo6+gVXVntYmJyZiaHB/XHf9DdWe1tLDf/0rX4gtX/vTMqjw4gzVhuOvvvSD4gf9RPzs+95Sjow6MHg4/vXHP1NO4funH/qlcmjkmeTr3/lR/Js/+WzxF9Sl8aEbfy5OjI3F0p7Fz631BAAAAJzaJz/3zfj9f/+JuPbd76v2tFY7NBRbbr8t+gemZiTNJV2Zf2hwX2y9787nBpI0Y9rdWeLw8LFyEe/PffWH8cnPfzd2PrO/XDR997ODcd6mNbF2VX915JkjRbPJiampb2kKXhrZJTwBAADAmUV8Okuk4Y5pql/v0p746rfvit//o0+XVyFYvmxJvPmqS8r1qs406Sp1ac2mtP7W9JXvAAAAgDOL+HSWWNTdFT/9njfGTR98X7nuUV9vT1x68eb45RveGW9/02XllePONJdctDl+9RfeHde+5XXl+lAAAADAmUd8OossW7I4PvDeN8W/+D9/Pf7bv/nH8Yf/z98vF4JbfoaupbVx3cr4tb/x3rjq8gurPQAAAMCZRnwCAAAAIBvxCQAAAIBsxCcAAAAAshGfAAAAAMhGfAIAAAAgG/EJAAAAgGzEJwAAAACyEZ8AAAAAyEZ8AgAAACAb8QkAAACAbMQnAAAAALJpr9Vq0Wqr1+vVoQAAAAAwU7Oe1Li19/b2Rqutp6enuisAAAAAmKlZT2rcTLsDAAAAIBvxCQAAAIBsxCcAAAAAshGfAAAAAMhGfAIAAAAgG/EJAAAAgGzEJwAAAACyednjU1vb1J8nToxN3QAAAADgJRsZGY229o7qo5fPK2DkU1ss7O6Oz37x29XHAAAAALxUf/XF78TKlQPVRy+fV8S0u9dedkX84R9/Km793t3VHgAAAABerN/7d38Wjz+1Ky66+JJqz8unbbJQ3W7qrrvviRtvujn6BlZVe1qbnJiIocH9cd31N1R75mfH9m3x8Nb7Y+HCBdGzaFG1FwAAAIAXYqg2HJ0dnfGma94eS5YsrfbOrXZoKLbcflv0D6yu9rQ2OTEZQ4P7Yut9d0Z7+6nHN71i4lOSnsrBwcE4ceJ4tQcAAACAF2Jxz5JYtqy3+mj+XhXxCQAAAICXR6749IpY8wkAAACAs5P4BAAAAEA24hMAAAAA2YhPAAAAAGQjPgEAAACQjfgEAAAAQDanPT5NVn823gIAAADglW0ypZy2tqkPTqPTHp/a26fusnboUPknAAAAAK98e3bvio6Ojuqj0yfLtLvuRYvi7jt/GMdHj1d7AAAAAHilOrB/X+zY/nQsXrKs2nP6tB06dKjl/Lh7f3x/fOgf/KPoG1hV7ZmfI4cPxejx47FkydJYsGBBtRcAAACAV5Jjx47GyMhILF6yNLoXLa72zm1yYjKGBvfF7d/7xnMz4ZppmyxUt5u66+574sabbn7B8SkZHx+P0eLJW/8JAAAA4JUphaOuhYuirf2Frfc0HZ+23nfnyxefAAAAADg7zTc+ZVnzCQAAAAAS8QkAAACAbMQnAAAAALIRnwAAAADIRnwCAAAAIBvxCQAAAIBs5hef2qo/AQAAAKA0Wf3Z2pzx6ZzNm2JysriztAEAAABAYWzsRCxc2BXt7a3z0pzxaWBgZVxwwXlxuHao2gMAAADAq9nk5EQcOVyLv3fTjdWeU2ubLIc1tXbkSD2uu/7nY+jQoeha2B1tpuEBAAAAvCpNjE/E6OjxeMfbr4k/+c//vtp7avOKT9M++79uiW/c+q04fny02tPc2NhYdHZ2Vh/lkfsxRkZGoru7u/ro9DsbzpHXYG5eg9a8BnPL/RokZ/o58hrMzWswN6/B3M70/03wGszNazA3r8Hccj+G12BuXoPWvAZzm8/z7+9fHr/yy78YV7/xympPay8oPs1XrVaL3t7e6qM8cj/G9u3bY/PmzdVHp9/ZcI68BnPzGrTmNZhb7tcgOdPPkddgbl6DuXkN5nam/2+C12BuXoO5eQ3mlvsxvAZz8xq05jWYW47nP7+r3QEAAADAiyA+AQAAAJCN+AQAAABANuITAAAAAJlE/P88OYtq2o7aIwAAAABJRU5ErkJggg==;" vertex="1" parent="1">
          <mxGeometry x="40" y="30" width="1183" height="790" as="geometry" />
        </mxCell>
        <mxCell id="yiytnbEiFr3y9sX3xMqf-9" value="" style="edgeStyle=orthogonalEdgeStyle;rounded=0;orthogonalLoop=1;jettySize=auto;html=1;" edge="1" parent="1" source="yiytnbEiFr3y9sX3xMqf-7" target="yiytnbEiFr3y9sX3xMqf-8">
          <mxGeometry relative="1" as="geometry" />
        </mxCell>
        <mxCell id="yiytnbEiFr3y9sX3xMqf-7" value="&lt;b style=&quot;font-size: 30px;&quot;&gt;&lt;font style=&quot;font-size: 30px;&quot;&gt;Start&lt;/font&gt;&lt;/b&gt;" style="strokeWidth=2;html=1;shape=mxgraph.flowchart.start_1;whiteSpace=wrap;fontSize=30;fillColor=#fff2cc;strokeColor=#d6b656;" vertex="1" parent="1">
          <mxGeometry x="1870" y="20" width="160" height="90" as="geometry" />
        </mxCell>
        <mxCell id="yiytnbEiFr3y9sX3xMqf-16" style="edgeStyle=orthogonalEdgeStyle;rounded=0;orthogonalLoop=1;jettySize=auto;html=1;exitX=0.5;exitY=1;exitDx=0;exitDy=0;" edge="1" parent="1" source="yiytnbEiFr3y9sX3xMqf-8" target="yiytnbEiFr3y9sX3xMqf-12">
          <mxGeometry relative="1" as="geometry" />
        </mxCell>
        <mxCell id="yiytnbEiFr3y9sX3xMqf-18" style="edgeStyle=orthogonalEdgeStyle;rounded=0;orthogonalLoop=1;jettySize=auto;html=1;exitX=0.5;exitY=1;exitDx=0;exitDy=0;entryX=0.5;entryY=0;entryDx=0;entryDy=0;" edge="1" parent="1" source="yiytnbEiFr3y9sX3xMqf-8" target="yiytnbEiFr3y9sX3xMqf-10">
          <mxGeometry relative="1" as="geometry" />
        </mxCell>
        <mxCell id="yiytnbEiFr3y9sX3xMqf-8" value="Create New Window" style="rounded=1;whiteSpace=wrap;html=1;absoluteArcSize=1;arcSize=14;strokeWidth=2;fontStyle=1;fontSize=16;fillColor=#dae8fc;strokeColor=#6c8ebf;" vertex="1" parent="1">
          <mxGeometry x="1861.25" y="160" width="177.5" height="50" as="geometry" />
        </mxCell>
        <mxCell id="yiytnbEiFr3y9sX3xMqf-67" style="edgeStyle=orthogonalEdgeStyle;rounded=0;orthogonalLoop=1;jettySize=auto;html=1;exitX=0.5;exitY=1;exitDx=0;exitDy=0;entryX=0.5;entryY=0;entryDx=0;entryDy=0;" edge="1" parent="1" source="yiytnbEiFr3y9sX3xMqf-10" target="yiytnbEiFr3y9sX3xMqf-19">
          <mxGeometry relative="1" as="geometry" />
        </mxCell>
        <mxCell id="yiytnbEiFr3y9sX3xMqf-68" style="edgeStyle=orthogonalEdgeStyle;rounded=0;orthogonalLoop=1;jettySize=auto;html=1;exitX=0.5;exitY=1;exitDx=0;exitDy=0;entryX=0.5;entryY=0;entryDx=0;entryDy=0;" edge="1" parent="1" source="yiytnbEiFr3y9sX3xMqf-10" target="yiytnbEiFr3y9sX3xMqf-20">
          <mxGeometry relative="1" as="geometry" />
        </mxCell>
        <mxCell id="yiytnbEiFr3y9sX3xMqf-69" style="edgeStyle=orthogonalEdgeStyle;rounded=0;orthogonalLoop=1;jettySize=auto;html=1;exitX=0.5;exitY=1;exitDx=0;exitDy=0;entryX=0.5;entryY=0;entryDx=0;entryDy=0;" edge="1" parent="1" source="yiytnbEiFr3y9sX3xMqf-10" target="yiytnbEiFr3y9sX3xMqf-21">
          <mxGeometry relative="1" as="geometry" />
        </mxCell>
        <mxCell id="yiytnbEiFr3y9sX3xMqf-70" style="edgeStyle=orthogonalEdgeStyle;rounded=0;orthogonalLoop=1;jettySize=auto;html=1;exitX=0.5;exitY=1;exitDx=0;exitDy=0;entryX=0.5;entryY=0;entryDx=0;entryDy=0;" edge="1" parent="1" source="yiytnbEiFr3y9sX3xMqf-10" target="yiytnbEiFr3y9sX3xMqf-22">
          <mxGeometry relative="1" as="geometry" />
        </mxCell>
        <mxCell id="yiytnbEiFr3y9sX3xMqf-10" value="Create TaskBar" style="rounded=1;whiteSpace=wrap;html=1;absoluteArcSize=1;arcSize=14;strokeWidth=2;fontStyle=1;fontSize=16;fillColor=#dae8fc;strokeColor=#6c8ebf;" vertex="1" parent="1">
          <mxGeometry x="2320" y="260" width="177.5" height="50" as="geometry" />
        </mxCell>
        <mxCell id="yiytnbEiFr3y9sX3xMqf-15" value="" style="edgeStyle=orthogonalEdgeStyle;rounded=0;orthogonalLoop=1;jettySize=auto;html=1;" edge="1" parent="1" source="yiytnbEiFr3y9sX3xMqf-12" target="yiytnbEiFr3y9sX3xMqf-14">
          <mxGeometry relative="1" as="geometry" />
        </mxCell>
        <mxCell id="yiytnbEiFr3y9sX3xMqf-12" value="Create BackGround" style="rounded=1;whiteSpace=wrap;html=1;absoluteArcSize=1;arcSize=14;strokeWidth=2;fontStyle=1;fontSize=16;fillColor=#dae8fc;strokeColor=#6c8ebf;" vertex="1" parent="1">
          <mxGeometry x="1590" y="260" width="177.5" height="50" as="geometry" />
        </mxCell>
        <mxCell id="yiytnbEiFr3y9sX3xMqf-32" value="" style="edgeStyle=orthogonalEdgeStyle;rounded=0;orthogonalLoop=1;jettySize=auto;html=1;" edge="1" parent="1" source="yiytnbEiFr3y9sX3xMqf-14" target="yiytnbEiFr3y9sX3xMqf-31">
          <mxGeometry relative="1" as="geometry" />
        </mxCell>
        <mxCell id="yiytnbEiFr3y9sX3xMqf-14" value="&lt;span style=&quot;font-size: 16px; font-weight: 700;&quot;&gt;From fall_down_detection&lt;/span&gt;&lt;div&gt;&lt;span style=&quot;font-size: 16px; font-weight: 700;&quot;&gt;import VideoCaptureThread&lt;/span&gt;&lt;/div&gt;" style="shape=parallelogram;html=1;strokeWidth=2;perimeter=parallelogramPerimeter;whiteSpace=wrap;rounded=1;arcSize=12;size=0.23;fillColor=#e1d5e7;strokeColor=#9673a6;" vertex="1" parent="1">
          <mxGeometry x="1508.75" y="350" width="340" height="70" as="geometry" />
        </mxCell>
        <mxCell id="yiytnbEiFr3y9sX3xMqf-62" style="edgeStyle=orthogonalEdgeStyle;rounded=0;orthogonalLoop=1;jettySize=auto;html=1;exitX=0;exitY=0.5;exitDx=0;exitDy=0;entryX=0;entryY=0.5;entryDx=0;entryDy=0;" edge="1" parent="1" source="yiytnbEiFr3y9sX3xMqf-19" target="yiytnbEiFr3y9sX3xMqf-46">
          <mxGeometry relative="1" as="geometry" />
        </mxCell>
        <mxCell id="yiytnbEiFr3y9sX3xMqf-63" style="edgeStyle=orthogonalEdgeStyle;rounded=0;orthogonalLoop=1;jettySize=auto;html=1;exitX=0;exitY=0.5;exitDx=0;exitDy=0;entryX=0;entryY=0.5;entryDx=0;entryDy=0;" edge="1" parent="1" source="yiytnbEiFr3y9sX3xMqf-19" target="yiytnbEiFr3y9sX3xMqf-47">
          <mxGeometry relative="1" as="geometry" />
        </mxCell>
        <mxCell id="yiytnbEiFr3y9sX3xMqf-19" value="Buttom Setting" style="rounded=1;whiteSpace=wrap;html=1;absoluteArcSize=1;arcSize=14;strokeWidth=2;fontStyle=1;fontSize=16;fillColor=#dae8fc;strokeColor=#6c8ebf;" vertex="1" parent="1">
          <mxGeometry x="1990" y="380" width="177.5" height="50" as="geometry" />
        </mxCell>
        <mxCell id="yiytnbEiFr3y9sX3xMqf-71" style="edgeStyle=orthogonalEdgeStyle;rounded=0;orthogonalLoop=1;jettySize=auto;html=1;exitX=0;exitY=0.5;exitDx=0;exitDy=0;entryX=0;entryY=0.5;entryDx=0;entryDy=0;" edge="1" parent="1" source="yiytnbEiFr3y9sX3xMqf-20" target="yiytnbEiFr3y9sX3xMqf-48">
          <mxGeometry relative="1" as="geometry" />
        </mxCell>
        <mxCell id="yiytnbEiFr3y9sX3xMqf-20" value="Buttom Option" style="rounded=1;whiteSpace=wrap;html=1;absoluteArcSize=1;arcSize=14;strokeWidth=2;fontStyle=1;fontSize=16;fillColor=#dae8fc;strokeColor=#6c8ebf;" vertex="1" parent="1">
          <mxGeometry x="2210" y="380" width="177.5" height="50" as="geometry" />
        </mxCell>
        <mxCell id="yiytnbEiFr3y9sX3xMqf-72" style="edgeStyle=orthogonalEdgeStyle;rounded=0;orthogonalLoop=1;jettySize=auto;html=1;exitX=0;exitY=0.5;exitDx=0;exitDy=0;entryX=0;entryY=0.5;entryDx=0;entryDy=0;" edge="1" parent="1" source="yiytnbEiFr3y9sX3xMqf-21" target="yiytnbEiFr3y9sX3xMqf-59">
          <mxGeometry relative="1" as="geometry" />
        </mxCell>
        <mxCell id="yiytnbEiFr3y9sX3xMqf-21" value="Buttom ShowLog" style="rounded=1;whiteSpace=wrap;html=1;absoluteArcSize=1;arcSize=14;strokeWidth=2;fontStyle=1;fontSize=16;fillColor=#dae8fc;strokeColor=#6c8ebf;" vertex="1" parent="1">
          <mxGeometry x="2440" y="380" width="177.5" height="50" as="geometry" />
        </mxCell>
        <mxCell id="yiytnbEiFr3y9sX3xMqf-25" value="" style="edgeStyle=orthogonalEdgeStyle;rounded=0;orthogonalLoop=1;jettySize=auto;html=1;" edge="1" parent="1" source="yiytnbEiFr3y9sX3xMqf-22" target="yiytnbEiFr3y9sX3xMqf-23">
          <mxGeometry relative="1" as="geometry" />
        </mxCell>
        <mxCell id="yiytnbEiFr3y9sX3xMqf-22" value="Buttom Exit" style="rounded=1;whiteSpace=wrap;html=1;absoluteArcSize=1;arcSize=14;strokeWidth=2;fontStyle=1;fontSize=16;fillColor=#dae8fc;strokeColor=#6c8ebf;" vertex="1" parent="1">
          <mxGeometry x="2640" y="380" width="177.5" height="50" as="geometry" />
        </mxCell>
        <mxCell id="yiytnbEiFr3y9sX3xMqf-74" value="" style="edgeStyle=orthogonalEdgeStyle;rounded=0;orthogonalLoop=1;jettySize=auto;html=1;" edge="1" parent="1" source="yiytnbEiFr3y9sX3xMqf-23" target="yiytnbEiFr3y9sX3xMqf-73">
          <mxGeometry relative="1" as="geometry" />
        </mxCell>
        <mxCell id="yiytnbEiFr3y9sX3xMqf-23" value="Exit Function" style="rounded=1;whiteSpace=wrap;html=1;absoluteArcSize=1;arcSize=14;strokeWidth=2;fontStyle=1;fontSize=16;fillColor=#dae8fc;strokeColor=#6c8ebf;" vertex="1" parent="1">
          <mxGeometry x="2640" y="500" width="177.5" height="50" as="geometry" />
        </mxCell>
        <mxCell id="yiytnbEiFr3y9sX3xMqf-39" style="edgeStyle=orthogonalEdgeStyle;rounded=0;orthogonalLoop=1;jettySize=auto;html=1;exitX=0;exitY=0.5;exitDx=0;exitDy=0;exitPerimeter=0;entryX=1;entryY=0.5;entryDx=0;entryDy=0;" edge="1" parent="1" source="yiytnbEiFr3y9sX3xMqf-31" target="yiytnbEiFr3y9sX3xMqf-37">
          <mxGeometry relative="1" as="geometry" />
        </mxCell>
        <mxCell id="yiytnbEiFr3y9sX3xMqf-41" value="" style="edgeStyle=orthogonalEdgeStyle;rounded=0;orthogonalLoop=1;jettySize=auto;html=1;" edge="1" parent="1" source="yiytnbEiFr3y9sX3xMqf-31" target="yiytnbEiFr3y9sX3xMqf-40">
          <mxGeometry relative="1" as="geometry" />
        </mxCell>
        <mxCell id="yiytnbEiFr3y9sX3xMqf-31" value="is fall down" style="strokeWidth=2;html=1;shape=mxgraph.flowchart.decision;whiteSpace=wrap;fillColor=#f8cecc;strokeColor=#b85450;fontStyle=1" vertex="1" parent="1">
          <mxGeometry x="1628.75" y="450" width="100" height="100" as="geometry" />
        </mxCell>
        <mxCell id="yiytnbEiFr3y9sX3xMqf-45" style="edgeStyle=orthogonalEdgeStyle;rounded=0;orthogonalLoop=1;jettySize=auto;html=1;exitX=0.5;exitY=0;exitDx=0;exitDy=0;entryX=0;entryY=0.5;entryDx=0;entryDy=0;" edge="1" parent="1" source="yiytnbEiFr3y9sX3xMqf-37" target="yiytnbEiFr3y9sX3xMqf-14">
          <mxGeometry relative="1" as="geometry">
            <Array as="points">
              <mxPoint x="1465" y="385" />
            </Array>
          </mxGeometry>
        </mxCell>
        <mxCell id="yiytnbEiFr3y9sX3xMqf-37" value="" style="ellipse;whiteSpace=wrap;html=1;aspect=fixed;fillColor=#dae8fc;strokeColor=#6c8ebf;" vertex="1" parent="1">
          <mxGeometry x="1450" y="485" width="30" height="30" as="geometry" />
        </mxCell>
        <mxCell id="yiytnbEiFr3y9sX3xMqf-44" style="edgeStyle=orthogonalEdgeStyle;rounded=0;orthogonalLoop=1;jettySize=auto;html=1;exitX=0;exitY=0.5;exitDx=0;exitDy=0;entryX=0.5;entryY=1;entryDx=0;entryDy=0;" edge="1" parent="1" source="yiytnbEiFr3y9sX3xMqf-40" target="yiytnbEiFr3y9sX3xMqf-37">
          <mxGeometry relative="1" as="geometry" />
        </mxCell>
        <mxCell id="yiytnbEiFr3y9sX3xMqf-55" style="edgeStyle=orthogonalEdgeStyle;rounded=0;orthogonalLoop=1;jettySize=auto;html=1;exitX=0.5;exitY=1;exitDx=0;exitDy=0;entryX=0.5;entryY=0;entryDx=0;entryDy=0;" edge="1" parent="1" source="yiytnbEiFr3y9sX3xMqf-40" target="yiytnbEiFr3y9sX3xMqf-42">
          <mxGeometry relative="1" as="geometry" />
        </mxCell>
        <mxCell id="yiytnbEiFr3y9sX3xMqf-40" value="Display" style="rounded=1;whiteSpace=wrap;html=1;absoluteArcSize=1;arcSize=14;strokeWidth=2;fontStyle=1;fontSize=16;fillColor=#dae8fc;strokeColor=#6c8ebf;" vertex="1" parent="1">
          <mxGeometry x="1590" y="600" width="177.5" height="50" as="geometry" />
        </mxCell>
        <mxCell id="yiytnbEiFr3y9sX3xMqf-66" value="" style="edgeStyle=orthogonalEdgeStyle;rounded=0;orthogonalLoop=1;jettySize=auto;html=1;" edge="1" parent="1" source="yiytnbEiFr3y9sX3xMqf-42" target="yiytnbEiFr3y9sX3xMqf-49">
          <mxGeometry relative="1" as="geometry" />
        </mxCell>
        <mxCell id="yiytnbEiFr3y9sX3xMqf-42" value="Notify from Setting" style="rounded=1;whiteSpace=wrap;html=1;absoluteArcSize=1;arcSize=14;strokeWidth=2;fontStyle=1;fontSize=16;fillColor=#dae8fc;strokeColor=#6c8ebf;" vertex="1" parent="1">
          <mxGeometry x="1590" y="680" width="177.5" height="50" as="geometry" />
        </mxCell>
        <mxCell id="yiytnbEiFr3y9sX3xMqf-46" value="Notify Setting" style="rounded=1;whiteSpace=wrap;html=1;absoluteArcSize=1;arcSize=14;strokeWidth=2;fontStyle=1;fontSize=16;fillColor=#dae8fc;strokeColor=#6c8ebf;" vertex="1" parent="1">
          <mxGeometry x="1990" y="440" width="177.5" height="50" as="geometry" />
        </mxCell>
        <mxCell id="yiytnbEiFr3y9sX3xMqf-47" value="Login" style="rounded=1;whiteSpace=wrap;html=1;absoluteArcSize=1;arcSize=14;strokeWidth=2;fontStyle=1;fontSize=16;fillColor=#dae8fc;strokeColor=#6c8ebf;" vertex="1" parent="1">
          <mxGeometry x="1990" y="495" width="177.5" height="50" as="geometry" />
        </mxCell>
        <mxCell id="yiytnbEiFr3y9sX3xMqf-48" value="Show Node" style="rounded=1;whiteSpace=wrap;html=1;absoluteArcSize=1;arcSize=14;strokeWidth=2;fontStyle=1;fontSize=16;fillColor=#dae8fc;strokeColor=#6c8ebf;" vertex="1" parent="1">
          <mxGeometry x="2210" y="440" width="177.5" height="50" as="geometry" />
        </mxCell>
        <mxCell id="yiytnbEiFr3y9sX3xMqf-58" value="" style="edgeStyle=orthogonalEdgeStyle;rounded=0;orthogonalLoop=1;jettySize=auto;html=1;" edge="1" parent="1" source="yiytnbEiFr3y9sX3xMqf-49" target="yiytnbEiFr3y9sX3xMqf-57">
          <mxGeometry relative="1" as="geometry" />
        </mxCell>
        <mxCell id="yiytnbEiFr3y9sX3xMqf-65" value="" style="edgeStyle=orthogonalEdgeStyle;rounded=0;orthogonalLoop=1;jettySize=auto;html=1;" edge="1" parent="1" source="yiytnbEiFr3y9sX3xMqf-49" target="yiytnbEiFr3y9sX3xMqf-51">
          <mxGeometry relative="1" as="geometry" />
        </mxCell>
        <mxCell id="yiytnbEiFr3y9sX3xMqf-49" value="is Login" style="strokeWidth=2;html=1;shape=mxgraph.flowchart.decision;whiteSpace=wrap;fillColor=#f8cecc;strokeColor=#b85450;fontStyle=1" vertex="1" parent="1">
          <mxGeometry x="1629" y="780" width="100" height="100" as="geometry" />
        </mxCell>
        <mxCell id="yiytnbEiFr3y9sX3xMqf-51" value="Save Log on Device" style="rounded=1;whiteSpace=wrap;html=1;absoluteArcSize=1;arcSize=14;strokeWidth=2;fontStyle=1;fontSize=16;fillColor=#dae8fc;strokeColor=#6c8ebf;" vertex="1" parent="1">
          <mxGeometry x="1790.25" y="805" width="190" height="50" as="geometry" />
        </mxCell>
        <mxCell id="yiytnbEiFr3y9sX3xMqf-57" value="Save Log to Database" style="rounded=1;whiteSpace=wrap;html=1;absoluteArcSize=1;arcSize=14;strokeWidth=2;fontStyle=1;fontSize=16;fillColor=#dae8fc;strokeColor=#6c8ebf;" vertex="1" parent="1">
          <mxGeometry x="1584" y="920" width="190" height="50" as="geometry" />
        </mxCell>
        <mxCell id="yiytnbEiFr3y9sX3xMqf-59" value="Show Vertical Bar Chart from Log" style="rounded=1;whiteSpace=wrap;html=1;absoluteArcSize=1;arcSize=14;strokeWidth=2;fontStyle=1;fontSize=16;fillColor=#dae8fc;strokeColor=#6c8ebf;" vertex="1" parent="1">
          <mxGeometry x="2440" y="440" width="177.5" height="50" as="geometry" />
        </mxCell>
        <mxCell id="yiytnbEiFr3y9sX3xMqf-73" value="&lt;b style=&quot;font-size: 30px;&quot;&gt;&lt;font style=&quot;font-size: 30px;&quot;&gt;End&lt;/font&gt;&lt;/b&gt;" style="strokeWidth=2;html=1;shape=mxgraph.flowchart.start_1;whiteSpace=wrap;fontSize=30;fillColor=#fff2cc;strokeColor=#d6b656;" vertex="1" parent="1">
          <mxGeometry x="2648.75" y="620" width="160" height="90" as="geometry" />
        </mxCell>
        <mxCell id="yiytnbEiFr3y9sX3xMqf-75" value="&lt;b&gt;True&lt;/b&gt;" style="text;html=1;align=center;verticalAlign=middle;resizable=0;points=[];autosize=1;strokeColor=none;fillColor=none;" vertex="1" parent="1">
          <mxGeometry x="1670" y="545" width="50" height="30" as="geometry" />
        </mxCell>
        <mxCell id="yiytnbEiFr3y9sX3xMqf-77" value="&lt;b&gt;True&lt;/b&gt;" style="text;html=1;align=center;verticalAlign=middle;resizable=0;points=[];autosize=1;strokeColor=none;fillColor=none;" vertex="1" parent="1">
          <mxGeometry x="1670" y="880" width="50" height="30" as="geometry" />
        </mxCell>
        <mxCell id="yiytnbEiFr3y9sX3xMqf-78" value="&lt;b&gt;False&lt;/b&gt;" style="text;html=1;align=center;verticalAlign=middle;resizable=0;points=[];autosize=1;strokeColor=none;fillColor=none;" vertex="1" parent="1">
          <mxGeometry x="1720" y="805" width="50" height="30" as="geometry" />
        </mxCell>
        <mxCell id="yiytnbEiFr3y9sX3xMqf-79" value="&lt;b&gt;False&lt;/b&gt;" style="text;html=1;align=center;verticalAlign=middle;resizable=0;points=[];autosize=1;strokeColor=none;fillColor=none;" vertex="1" parent="1">
          <mxGeometry x="1585" y="475" width="50" height="30" as="geometry" />
        </mxCell>
      </root>
    </mxGraphModel>
  </diagram>
</mxfile>
